# xmcd
#
# Track frame offsets:
#	150
#	11914
#	28683
#	41527
#	55988
#	84502
#	104001
#	119245
#	138859
#	160681
#	181660
#	207144
#	253820
#	272492
#	289246
#	303140
#	320649
#
# Disc length: 4522 seconds
#
# Revision: 4
# Processed by: cddbd v1.5PL3 Copyright (c) Steve Scherf et al.
# Submitted via: audiograbber 1.82.01
#
DISCID=f211a811
DTITLE=Stevie Ray Vaughan - Rare and Unissued Tracks. Volume 1
DYEAR=1900
DGENRE=Blues
TTITLE0=Paul Ray and The Cobras - Thunderbird
TTITLE1=Stevie Ray Vaughan - I'm Cryin'
TTITLE2=Stevie Ray Vaughan - You're Gonna Miss Me Baby
TTITLE3=Stevie Ray Vaughan - They Call Me Guitar Hurricane (live)
TTITLE4=Stevie Ray Vaughan - All Your Love I Miss Loving (live)
TTITLE5=Stevie Ray Vaughan - Come On (Pt.III)
TTITLE6=Stevie Ray Vaughan - Letter To My Girlfriend
TTITLE7=Stevie Ray Vaughan - Lenny
TTITLE8=Stevie Ray Vaughan - Don't Lose Your Cool (live)
TTITLE9=Stevie Ray Vaughan - Crosscut Saw (live)
TTITLE10=Stevie Ray Vaughan - Manic Depression (live)
TTITLE11=Stevie Ray Vaughan - Texas Flood (live)
TTITLE12=Stevie Ray Vaughan - Collins Shuffle (live)
TTITLE13=Stevie Ray Vaughan - Pride And Joy
TTITLE14=Stevie Ray Vaughan - Love Struck Baby (live)
TTITLE15=Stevie Ray Vaughan - Hug You, Squeeze You (live)
TTITLE16=Johnny Copeland - Don't Stop By The Creek, Son 
EXTD=
EXTT0=
EXTT1=
EXTT2=
EXTT3=
EXTT4=
EXTT5=
EXTT6=
EXTT7=
EXTT8=
EXTT9=
EXTT10=
EXTT11=
EXTT12=
EXTT13=
EXTT14=
EXTT15=
EXTT16=
PLAYORDER=
